# Blender v2.92.0 OBJ File: 'barricade.blend'
# www.blender.org
mtllib barricade.mtl
o 立方体
v -9.707938 -0.246675 1.291095
v -8.422825 6.990672 0.609943
v -9.707938 -0.246675 -1.291095
v -8.422825 6.990672 -0.609943
v 9.707938 -0.246675 1.291095
v 8.422825 6.990672 0.609943
v 9.707938 -0.246675 -1.291095
v 8.422825 6.990672 -0.609943
vt 0.625000 0.000000
vt 0.375000 0.250000
vt 0.375000 0.000000
vt 0.625000 0.250000
vt 0.375000 0.500000
vt 0.625000 0.500000
vt 0.375000 0.750000
vt 0.625000 0.750000
vt 0.375000 1.000000
vt 0.125000 0.750000
vt 0.125000 0.500000
vt 0.875000 0.500000
vt 0.625000 1.000000
vt 0.875000 0.750000
vn -0.9846 0.1748 0.0000
vn 0.0000 0.0937 -0.9956
vn 0.9846 0.1748 0.0000
vn 0.0000 0.0937 0.9956
vn 0.0000 -1.0000 0.0000
vn 0.0000 1.0000 0.0000
usemtl マテリアル
s off
f 2/1/1 3/2/1 1/3/1
f 4/4/2 7/5/2 3/2/2
f 8/6/3 5/7/3 7/5/3
f 6/8/4 1/9/4 5/7/4
f 7/5/5 1/10/5 3/11/5
f 4/12/6 6/8/6 8/6/6
f 2/1/1 4/4/1 3/2/1
f 4/4/2 8/6/2 7/5/2
f 8/6/3 6/8/3 5/7/3
f 6/8/4 2/13/4 1/9/4
f 7/5/5 5/7/5 1/10/5
f 4/12/6 2/14/6 6/8/6
