# Blender v2.92.0 OBJ File: 'stage2.blend'
# www.blender.org
mtllib stage.mtl
o 平面
v -131.785904 -0.788460 75.680565
v 110.919968 -0.788460 75.680565
v 110.919968 -0.510111 -85.851028
v -131.599854 -0.788434 -86.602112
v 110.919968 -0.649285 -5.085227
v -10.432968 -0.788460 75.680565
v -10.432968 -0.649285 -5.085227
v -10.339943 -0.649272 -86.226570
v -131.692871 -0.788447 -5.460777
v 110.919968 -0.579698 -45.468128
v 50.243500 -0.788460 75.680565
v 50.243500 -0.579698 -45.468128
v -70.969894 -0.718853 -86.414337
v -131.646362 -0.788440 -46.031445
v 110.919968 -0.718873 35.297668
v -71.109436 -0.788460 75.680565
v -71.109436 -0.718873 35.297668
v 50.290012 -0.579691 -86.038803
v -131.739380 -0.788453 35.109894
v -10.386456 -0.649279 -45.655899
v -71.016403 -0.718860 -45.843674
v -71.062920 -0.718866 -5.273003
v 50.243500 -0.649285 -5.085227
v -10.432968 -0.718873 35.297668
v 50.243500 -0.718873 35.297668
vt 0.500000 0.000000
vt 0.625000 0.000000
vt 0.625000 0.125000
vt 0.000000 0.000000
vt 0.125000 0.000000
vt 0.250000 0.125000
vt 0.500000 0.250000
vt 0.625000 0.250000
vt 0.750000 0.375000
vt 0.375000 0.125000
vt 0.250000 0.000000
vt 0.375000 0.000000
vt 0.500000 0.125000
vt 0.750000 0.250000
vt 0.875000 0.250000
vt 0.875000 0.375000
vt 0.750000 0.125000
vt 0.750000 0.000000
vt 0.875000 0.000000
vt 0.875000 0.125000
vt 1.000000 0.125000
vt 1.000000 0.250000
vt 1.000000 0.000000
vt 1.000000 0.375000
vt 1.000000 0.500000
vn -0.0001 1.0000 0.0015
vn 0.0009 1.0000 0.0023
vn -0.0015 1.0000 0.0014
vn -0.0011 1.0000 -0.0000
vn -0.0020 1.0000 -0.0007
vn -0.0003 1.0000 -0.0006
vn -0.0006 1.0000 0.0000
vn -0.0017 1.0000 -0.0000
vn 0.0005 1.0000 0.0009
vn 0.0000 1.0000 0.0012
vn 0.0009 1.0000 0.0011
vn -0.0004 1.0000 0.0020
vn 0.0000 1.0000 0.0017
vn -0.0009 1.0000 0.0001
usemtl None
s 1
f 1/1/1 16/2/2 17/3/3
f 4/4/4 14/5/4 13/6/5
f 8/7/5 20/8/6 18/9/5
f 8/7/5 21/10/7 20/8/6
f 9/11/4 19/12/4 22/13/8
f 7/14/9 23/15/10 12/16/3
f 7/14/9 24/17/11 23/15/10
f 6/18/2 11/19/2 25/20/12
f 25/20/12 15/21/13 5/22/13
f 25/20/12 11/19/2 15/21/13
f 11/19/2 2/23/13 15/21/13
f 23/15/10 25/20/12 5/22/13
f 23/15/10 24/17/11 25/20/12
f 24/17/11 6/18/2 25/20/12
f 12/16/3 10/24/13 3/25/14
f 12/16/3 23/15/10 10/24/13
f 23/15/10 5/22/13 10/24/13
f 22/13/8 17/3/3 7/14/9
f 22/13/8 19/12/4 17/3/3
f 19/12/4 1/1/1 17/3/3
f 20/8/6 22/13/8 7/14/9
f 20/8/6 21/10/7 22/13/8
f 21/10/7 9/11/4 22/13/8
f 18/9/5 12/16/3 3/25/14
f 18/9/5 20/8/6 12/16/3
f 20/8/6 7/14/9 12/16/3
f 13/6/5 21/10/7 8/7/5
f 13/6/5 14/5/4 21/10/7
f 14/5/4 9/11/4 21/10/7
f 17/3/3 24/17/11 7/14/9
f 17/3/3 16/2/2 24/17/11
f 16/2/2 6/18/2 24/17/11
o 平面.001
v -131.785904 81.533134 74.220139
v 110.919968 81.533134 74.220139
v 110.919968 -1.667770 73.981491
v -131.599854 -2.054504 74.259972
v 110.919968 39.932682 74.100815
v -10.432968 81.533134 74.220139
v -10.432968 39.932682 74.100815
v -10.339943 -1.861137 74.120728
v -131.692871 39.739315 74.240059
v 110.919968 19.132458 74.041153
v 50.243500 81.533134 74.220139
v 50.243500 19.132458 74.041153
v -70.969894 -1.957820 74.190353
v -131.646362 18.842407 74.250015
v 110.919968 60.732910 74.160469
v -71.109436 81.533134 74.220139
v -71.109436 60.732910 74.160469
v 50.290012 -1.764453 74.051109
v -131.739380 60.636223 74.230095
v -10.386456 19.035774 74.110764
v -71.016403 18.939091 74.180389
v -71.062920 39.835999 74.170433
v 50.243500 39.932682 74.100815
v -10.432968 60.732910 74.160469
v 50.243500 60.732910 74.160469
vt 0.500000 0.000000
vt 0.625000 0.000000
vt 0.625000 0.125000
vt 0.000000 0.000000
vt 0.125000 0.000000
vt 0.250000 0.125000
vt 0.500000 0.250000
vt 0.625000 0.250000
vt 0.750000 0.375000
vt 0.375000 0.125000
vt 0.250000 0.000000
vt 0.375000 0.000000
vt 0.500000 0.125000
vt 0.750000 0.250000
vt 0.875000 0.250000
vt 0.875000 0.375000
vt 0.750000 0.125000
vt 0.750000 0.000000
vt 0.875000 0.000000
vt 0.875000 0.125000
vt 1.000000 0.125000
vt 1.000000 0.250000
vt 1.000000 0.000000
vt 1.000000 0.375000
vt 1.000000 0.500000
vn -0.0002 0.0022 -1.0000
vn 0.0014 0.0044 -1.0000
vn -0.0025 0.0019 -1.0000
vn -0.0011 -0.0005 -1.0000
vn -0.0025 -0.0020 -1.0000
vn 0.0008 -0.0011 -1.0000
vn -0.0001 -0.0005 -1.0000
vn -0.0022 -0.0005 -1.0000
vn 0.0015 0.0012 -1.0000
vn 0.0000 0.0019 -1.0000
vn 0.0019 0.0022 -1.0000
vn -0.0010 0.0032 -1.0000
vn 0.0000 0.0029 -1.0000
vn -0.0009 0.0002 -1.0000
usemtl None
s 1
f 26/26/15 41/27/16 42/28/17
f 29/29/18 39/30/18 38/31/19
f 33/32/19 45/33/20 43/34/19
f 33/32/19 46/35/21 45/33/20
f 34/36/18 44/37/18 47/38/22
f 32/39/23 48/40/24 37/41/17
f 32/39/23 49/42/25 48/40/24
f 31/43/16 36/44/16 50/45/26
f 50/45/26 40/46/27 30/47/27
f 50/45/26 36/44/16 40/46/27
f 36/44/16 27/48/27 40/46/27
f 48/40/24 50/45/26 30/47/27
f 48/40/24 49/42/25 50/45/26
f 49/42/25 31/43/16 50/45/26
f 37/41/17 35/49/27 28/50/28
f 37/41/17 48/40/24 35/49/27
f 48/40/24 30/47/27 35/49/27
f 47/38/22 42/28/17 32/39/23
f 47/38/22 44/37/18 42/28/17
f 44/37/18 26/26/15 42/28/17
f 45/33/20 47/38/22 32/39/23
f 45/33/20 46/35/21 47/38/22
f 46/35/21 34/36/18 47/38/22
f 43/34/19 37/41/17 28/50/28
f 43/34/19 45/33/20 37/41/17
f 45/33/20 32/39/23 37/41/17
f 38/31/19 46/35/21 33/32/19
f 38/31/19 39/30/18 46/35/21
f 39/30/18 34/36/18 46/35/21
f 42/28/17 49/42/25 32/39/23
f 42/28/17 41/27/16 49/42/25
f 41/27/16 31/43/16 49/42/25
o 平面.002
v -131.785904 -1.814175 -85.785011
v 110.919968 -1.814175 -85.785011
v 110.919968 81.386604 -85.506699
v -131.599854 81.773476 -85.784996
v 110.919968 39.786213 -85.645851
v -10.432968 -1.814175 -85.785011
v -10.432968 39.786213 -85.645851
v -10.339943 81.580040 -85.645844
v -131.692871 39.979649 -85.785004
v 110.919968 60.586407 -85.576279
v 50.243500 -1.814175 -85.785011
v 50.243500 60.586407 -85.576279
v -70.969894 81.676758 -85.715424
v -131.646362 60.876560 -85.785004
v 110.919968 18.986019 -85.715439
v -71.109436 -1.814175 -85.785011
v -71.109436 18.986019 -85.715439
v 50.290012 81.483322 -85.576271
v -131.739380 19.082737 -85.785011
v -10.386456 60.683125 -85.645851
v -71.016403 60.779842 -85.715431
v -71.062920 39.882931 -85.715431
v 50.243500 39.786213 -85.645851
v -10.432968 18.986019 -85.715439
v 50.243500 18.986019 -85.715439
vt 0.500000 0.000000
vt 0.625000 0.000000
vt 0.625000 0.125000
vt 0.000000 0.000000
vt 0.125000 0.000000
vt 0.250000 0.125000
vt 0.500000 0.250000
vt 0.625000 0.250000
vt 0.750000 0.375000
vt 0.375000 0.125000
vt 0.250000 0.000000
vt 0.375000 0.000000
vt 0.500000 0.125000
vt 0.750000 0.250000
vt 0.875000 0.250000
vt 0.875000 0.375000
vt 0.750000 0.125000
vt 0.750000 0.000000
vt 0.875000 0.000000
vt 0.875000 0.125000
vt 1.000000 0.125000
vt 1.000000 0.250000
vt 1.000000 0.000000
vt 1.000000 0.375000
vt 1.000000 0.500000
vn -0.0002 -0.0026 1.0000
vn 0.0014 -0.0048 1.0000
vn -0.0025 -0.0023 1.0000
vn -0.0011 0.0000 1.0000
vn -0.0025 0.0015 1.0000
vn 0.0008 0.0007 1.0000
vn -0.0001 0.0000 1.0000
vn -0.0022 0.0000 1.0000
vn 0.0014 -0.0017 1.0000
vn 0.0000 -0.0023 1.0000
vn 0.0019 -0.0027 1.0000
vn -0.0010 -0.0037 1.0000
vn 0.0000 -0.0033 1.0000
vn -0.0008 -0.0007 1.0000
usemtl None
s 1
f 51/51/29 66/52/30 67/53/31
f 54/54/32 64/55/32 63/56/33
f 58/57/33 70/58/34 68/59/33
f 58/57/33 71/60/35 70/58/34
f 59/61/32 69/62/32 72/63/36
f 57/64/37 73/65/38 62/66/31
f 57/64/37 74/67/39 73/65/38
f 56/68/30 61/69/30 75/70/40
f 75/70/40 65/71/41 55/72/41
f 75/70/40 61/69/30 65/71/41
f 61/69/30 52/73/41 65/71/41
f 73/65/38 75/70/40 55/72/41
f 73/65/38 74/67/39 75/70/40
f 74/67/39 56/68/30 75/70/40
f 62/66/31 60/74/41 53/75/42
f 62/66/31 73/65/38 60/74/41
f 73/65/38 55/72/41 60/74/41
f 72/63/36 67/53/31 57/64/37
f 72/63/36 69/62/32 67/53/31
f 69/62/32 51/51/29 67/53/31
f 70/58/34 72/63/36 57/64/37
f 70/58/34 71/60/35 72/63/36
f 71/60/35 59/61/32 72/63/36
f 68/59/33 62/66/31 53/75/42
f 68/59/33 70/58/34 62/66/31
f 70/58/34 57/64/37 62/66/31
f 63/56/33 71/60/35 58/57/33
f 63/56/33 64/55/32 71/60/35
f 64/55/32 59/61/32 71/60/35
f 67/53/31 74/67/39 57/64/37
f 67/53/31 66/52/30 74/67/39
f 66/52/30 56/68/30 74/67/39
o 平面.003
v 111.105400 81.027756 75.451286
v -131.599258 81.792778 75.451286
v -131.600128 81.514488 -86.080307
v 110.919365 81.028374 -86.831390
v -131.599701 81.653633 -5.314508
v -10.246925 81.410271 75.451286
v -10.247368 81.271126 -5.314508
v -10.340378 81.271431 -86.455849
v 111.012383 81.028069 -5.690058
v -131.599915 81.584061 -45.697407
v -70.923096 81.601524 75.451286
v -70.923752 81.392807 -45.697407
v 50.289494 81.149902 -86.643616
v 110.965874 81.028221 -46.260723
v -131.599487 81.723206 35.068390
v 50.429237 81.219017 75.451286
v 50.429016 81.149445 35.068390
v -70.970253 81.392960 -86.268082
v 111.058891 81.027908 34.880615
v -10.293873 81.271278 -45.885178
v 50.336002 81.149750 -46.072952
v 50.382507 81.149597 -5.502283
v -70.923538 81.462379 -5.314508
v -10.247147 81.340698 35.068390
v -70.923309 81.531952 35.068390
vt 0.500000 0.000000
vt 0.625000 0.000000
vt 0.625000 0.125000
vt 0.000000 0.000000
vt 0.125000 0.000000
vt 0.250000 0.125000
vt 0.500000 0.250000
vt 0.625000 0.250000
vt 0.750000 0.375000
vt 0.375000 0.125000
vt 0.250000 0.000000
vt 0.375000 0.000000
vt 0.500000 0.125000
vt 0.750000 0.250000
vt 0.875000 0.250000
vt 0.875000 0.375000
vt 0.750000 0.125000
vt 0.750000 0.000000
vt 0.875000 0.000000
vt 0.875000 0.125000
vt 1.000000 0.125000
vt 1.000000 0.250000
vt 1.000000 0.000000
vt 1.000000 0.375000
vt 1.000000 0.500000
vn -0.0031 -1.0000 0.0015
vn -0.0040 -1.0000 0.0023
vn -0.0017 -1.0000 0.0014
vn -0.0020 -1.0000 -0.0000
vn -0.0012 -1.0000 -0.0007
vn -0.0029 -1.0000 -0.0006
vn -0.0025 -1.0000 0.0000
vn -0.0015 -1.0000 -0.0000
vn -0.0036 -1.0000 0.0009
vn -0.0032 -1.0000 0.0012
vn -0.0040 -1.0000 0.0011
vn -0.0027 -1.0000 0.0020
vn -0.0032 -1.0000 0.0017
vn -0.0022 -1.0000 0.0001
usemtl None
s 1
f 76/76/43 91/77/44 92/78/45
f 79/79/46 89/80/46 88/81/47
f 83/82/47 95/83/48 93/84/47
f 83/82/47 96/85/49 95/83/48
f 84/86/46 94/87/46 97/88/50
f 82/89/51 98/90/52 87/91/45
f 82/89/51 99/92/53 98/90/52
f 81/93/44 86/94/44 100/95/54
f 100/95/54 90/96/55 80/97/55
f 100/95/54 86/94/44 90/96/55
f 86/94/44 77/98/55 90/96/55
f 98/90/52 100/95/54 80/97/55
f 98/90/52 99/92/53 100/95/54
f 99/92/53 81/93/44 100/95/54
f 87/91/45 85/99/55 78/100/56
f 87/91/45 98/90/52 85/99/55
f 98/90/52 80/97/55 85/99/55
f 97/88/50 92/78/45 82/89/51
f 97/88/50 94/87/46 92/78/45
f 94/87/46 76/76/43 92/78/45
f 95/83/48 97/88/50 82/89/51
f 95/83/48 96/85/49 97/88/50
f 96/85/49 84/86/46 97/88/50
f 93/84/47 87/91/45 78/100/56
f 93/84/47 95/83/48 87/91/45
f 95/83/48 82/89/51 87/91/45
f 88/81/47 96/85/49 83/82/47
f 88/81/47 89/80/46 96/85/49
f 89/80/46 84/86/46 96/85/49
f 92/78/45 99/92/53 82/89/51
f 92/78/45 91/77/44 99/92/53
f 91/77/44 81/93/44 99/92/53
o 平面.005
v -129.566666 -1.814191 79.424370
v -129.575638 -1.814163 -90.604263
v -129.249817 81.386436 -90.604263
v -129.518921 81.773430 79.294052
v -129.412720 39.786137 -90.604263
v -129.571152 -1.814177 -5.589943
v -129.408234 39.786121 -5.589952
v -129.384369 81.579933 -5.655107
v -129.542786 39.979622 79.359215
v -129.331268 60.586285 -90.604271
v -129.573395 -1.814170 -48.097103
v -129.329025 60.586277 -48.097107
v -129.451645 81.676682 36.819473
v -129.530853 60.876526 79.326630
v -129.494171 18.985989 -90.604263
v -129.568909 -1.814184 36.917213
v -129.487457 18.985966 36.917210
v -129.317093 81.483185 -48.129684
v -129.554718 19.082714 79.391785
v -129.396301 60.683025 -5.622530
v -129.463577 60.779774 36.852055
v -129.475510 39.882870 36.884632
v -129.410477 39.786129 -48.097107
v -129.489685 18.985973 -5.589947
v -129.491943 18.985981 -48.097103
vt 0.500000 0.000000
vt 0.625000 0.000000
vt 0.625000 0.125000
vt 0.000000 0.000000
vt 0.125000 0.000000
vt 0.250000 0.125000
vt 0.500000 0.250000
vt 0.625000 0.250000
vt 0.750000 0.375000
vt 0.375000 0.125000
vt 0.250000 0.000000
vt 0.375000 0.000000
vt 0.500000 0.125000
vt 0.750000 0.250000
vt 0.875000 0.250000
vt 0.875000 0.375000
vt 0.750000 0.125000
vt 0.750000 0.000000
vt 0.875000 0.000000
vt 0.875000 0.125000
vt 1.000000 0.125000
vt 1.000000 0.250000
vt 1.000000 0.000000
vt 1.000000 0.375000
vt 1.000000 0.500000
vn 1.0000 -0.0033 0.0002
vn 1.0000 -0.0052 -0.0015
vn 1.0000 -0.0031 0.0025
vn 1.0000 -0.0006 0.0016
vn 1.0000 0.0008 0.0031
vn 1.0000 0.0003 -0.0002
vn 1.0000 -0.0006 0.0006
vn 1.0000 -0.0006 0.0026
vn 1.0000 -0.0022 -0.0012
vn 1.0000 -0.0029 -0.0001
vn 1.0000 -0.0031 0.0026
vn 1.0000 -0.0031 -0.0018
vn 1.0000 -0.0043 0.0008
vn 1.0000 -0.0039 -0.0001
vn 1.0000 -0.0011 0.0013
usemtl None
s 1
f 101/101/57 116/102/58 117/103/59
f 104/104/60 114/105/60 113/106/61
f 108/107/61 120/108/62 118/109/61
f 108/107/61 121/110/63 120/108/62
f 109/111/60 119/112/60 122/113/64
f 107/114/65 123/115/66 112/116/67
f 107/114/65 124/117/68 123/115/66
f 106/118/58 111/119/58 125/120/69
f 125/120/69 115/121/70 105/122/70
f 125/120/69 111/119/58 115/121/70
f 111/119/58 102/123/70 115/121/70
f 123/115/66 125/120/69 105/122/70
f 123/115/66 124/117/68 125/120/69
f 124/117/68 106/118/58 125/120/69
f 112/116/67 110/124/70 103/125/71
f 112/116/67 123/115/66 110/124/70
f 123/115/66 105/122/70 110/124/70
f 122/113/64 117/103/59 107/114/65
f 122/113/64 119/112/60 117/103/59
f 119/112/60 101/101/57 117/103/59
f 120/108/62 122/113/64 107/114/65
f 120/108/62 121/110/63 122/113/64
f 121/110/63 109/111/60 122/113/64
f 118/109/61 112/116/67 103/125/71
f 118/109/61 120/108/62 112/116/67
f 120/108/62 107/114/65 112/116/67
f 113/106/61 121/110/63 108/107/61
f 113/106/61 114/105/60 121/110/63
f 114/105/60 109/111/60 121/110/63
f 117/103/59 124/117/68 107/114/65
f 117/103/59 116/102/58 124/117/68
f 116/102/58 106/118/58 124/117/68
o 平面.004_平面.006
v 111.187912 -1.814163 -90.734596
v 111.187912 -1.814191 79.294037
v 110.862099 81.386406 79.294052
v 111.140167 81.773460 -90.604248
v 111.025009 39.786110 79.294044
v 111.187912 -1.814177 -5.720284
v 111.025009 39.786121 -5.720277
v 111.001129 81.579933 -5.655099
v 111.164040 39.979649 -90.669426
v 110.943558 60.586258 79.294044
v 111.187912 -1.814184 36.786877
v 110.943558 60.586262 36.786888
v 111.070648 81.676697 -48.129673
v 111.152100 60.876553 -90.636841
v 111.106461 18.985958 79.294037
v 111.187912 -1.814170 -48.227440
v 111.106461 18.985981 -48.227436
v 110.931610 81.483170 36.819477
v 111.175980 19.082745 -90.702011
v 111.013069 60.683025 -5.687688
v 111.082581 60.779789 -48.162262
v 111.094528 39.882885 -48.194851
v 111.025009 39.786114 36.786884
v 111.106461 18.985973 -5.720280
v 111.106461 18.985966 36.786880
vt 0.500000 0.000000
vt 0.625000 0.000000
vt 0.625000 0.125000
vt 0.000000 0.000000
vt 0.125000 0.000000
vt 0.250000 0.125000
vt 0.500000 0.250000
vt 0.625000 0.250000
vt 0.750000 0.375000
vt 0.375000 0.125000
vt 0.250000 0.000000
vt 0.375000 0.000000
vt 0.500000 0.125000
vt 0.750000 0.250000
vt 0.875000 0.250000
vt 0.875000 0.375000
vt 0.750000 0.125000
vt 0.750000 0.000000
vt 0.875000 0.000000
vt 0.875000 0.125000
vt 1.000000 0.125000
vt 1.000000 0.250000
vt 1.000000 0.000000
vt 1.000000 0.375000
vt 1.000000 0.500000
vn -1.0000 -0.0033 -0.0003
vn -1.0000 -0.0052 0.0015
vn -1.0000 -0.0031 -0.0026
vn -1.0000 -0.0006 -0.0016
vn -1.0000 0.0008 -0.0031
vn -1.0000 0.0003 0.0001
vn -1.0000 -0.0006 -0.0006
vn -1.0000 -0.0006 -0.0026
vn -1.0000 -0.0022 0.0011
vn -1.0000 -0.0030 -0.0000
vn -1.0000 -0.0031 0.0018
vn -1.0000 -0.0043 -0.0009
vn -1.0000 -0.0039 -0.0000
vn -1.0000 -0.0011 -0.0013
usemtl None
s 1
f 126/126/72 141/127/73 142/128/74
f 129/129/75 139/130/75 138/131/76
f 133/132/76 145/133/77 143/134/76
f 133/132/76 146/135/78 145/133/77
f 134/136/75 144/137/75 147/138/79
f 132/139/80 148/140/81 137/141/74
f 132/139/80 149/142/82 148/140/81
f 131/143/73 136/144/73 150/145/83
f 150/145/83 140/146/84 130/147/84
f 150/145/83 136/144/73 140/146/84
f 136/144/73 127/148/84 140/146/84
f 148/140/81 150/145/83 130/147/84
f 148/140/81 149/142/82 150/145/83
f 149/142/82 131/143/73 150/145/83
f 137/141/74 135/149/84 128/150/85
f 137/141/74 148/140/81 135/149/84
f 148/140/81 130/147/84 135/149/84
f 147/138/79 142/128/74 132/139/80
f 147/138/79 144/137/75 142/128/74
f 144/137/75 126/126/72 142/128/74
f 145/133/77 147/138/79 132/139/80
f 145/133/77 146/135/78 147/138/79
f 146/135/78 134/136/75 147/138/79
f 143/134/76 137/141/74 128/150/85
f 143/134/76 145/133/77 137/141/74
f 145/133/77 132/139/80 137/141/74
f 138/131/76 146/135/78 133/132/76
f 138/131/76 139/130/75 146/135/78
f 139/130/75 134/136/75 146/135/78
f 142/128/74 149/142/82 132/139/80
f 142/128/74 141/127/73 149/142/82
f 141/127/73 131/143/73 149/142/82
