# Blender v2.92.0 OBJ File: ''
# www.blender.org
mtllib stage.mtl
o 平面
v -131.785904 -0.788460 75.680565
v 110.919968 -0.788460 75.680565
v 110.919968 -0.510111 -85.851028
v -131.599854 -0.788434 -86.602112
vt 0.500000 0.000000
vt 1.000000 0.000000
vt 1.000000 0.500000
vt 0.000000 0.000000
vn -0.0001 1.0000 0.0015
vn 0.0000 1.0000 0.0017
vn -0.0009 1.0000 0.0001
vn -0.0011 1.0000 -0.0000
usemtl None
s 1
f 1/1/1 2/2/2 3/3/3
f 4/4/4 1/1/1 3/3/3
o 平面.001
v -131.785904 81.533134 74.220139
v 110.919968 81.533134 74.220139
v 110.919968 -1.667770 73.981491
v -131.599854 -2.054504 74.259972
vt 0.500000 0.000000
vt 1.000000 0.000000
vt 1.000000 0.500000
vt 0.000000 0.000000
vn -0.0002 0.0022 -1.0000
vn 0.0000 0.0029 -1.0000
vn -0.0009 0.0002 -1.0000
vn -0.0011 -0.0005 -1.0000
usemtl None
s 1
f 5/5/5 6/6/6 7/7/7
f 8/8/8 5/5/5 7/7/7
o 平面.002
v -131.785904 -1.814175 -85.785011
v 110.919968 -1.814175 -85.785011
v 110.919968 81.386604 -85.506699
v -131.599854 81.773476 -85.784996
vt 0.500000 0.000000
vt 1.000000 0.000000
vt 1.000000 0.500000
vt 0.000000 0.000000
vn -0.0002 -0.0026 1.0000
vn 0.0000 -0.0033 1.0000
vn -0.0008 -0.0007 1.0000
vn -0.0011 0.0000 1.0000
usemtl None
s 1
f 9/9/9 10/10/10 11/11/11
f 12/12/12 9/9/9 11/11/11
o 平面.003
v 111.105400 81.027756 75.451286
v -131.599258 81.792778 75.451286
v -131.600128 81.514488 -86.080307
v 110.919365 81.028374 -86.831390
vt 0.500000 0.000000
vt 1.000000 0.000000
vt 1.000000 0.500000
vt 0.000000 0.000000
vn -0.0031 -1.0000 0.0015
vn -0.0032 -1.0000 0.0017
vn -0.0022 -1.0000 0.0001
vn -0.0020 -1.0000 -0.0000
usemtl None
s 1
f 13/13/13 14/14/14 15/15/15
f 16/16/16 13/13/13 15/15/15
o 平面.005
v -129.566666 -1.814191 79.424370
v -129.575638 -1.814163 -90.604263
v -129.249817 81.386436 -90.604263
v -129.518921 81.773430 79.294052
vt 0.500000 0.000000
vt 1.000000 0.000000
vt 1.000000 0.500000
vt 0.000000 0.000000
vn 1.0000 -0.0033 0.0002
vn 1.0000 -0.0039 -0.0001
vn 1.0000 -0.0011 0.0013
vn 1.0000 -0.0006 0.0016
usemtl None
s 1
f 17/17/17 18/18/18 19/19/19
f 20/20/20 17/17/17 19/19/19
o 平面.004_平面.006
v 111.187912 -1.814163 -90.734596
v 111.187912 -1.814191 79.294037
v 110.862099 81.386406 79.294052
v 111.140167 81.773460 -90.604248
vt 0.500000 0.000000
vt 1.000000 0.000000
vt 1.000000 0.500000
vt 0.000000 0.000000
vn -1.0000 -0.0033 -0.0003
vn -1.0000 -0.0039 -0.0000
vn -1.0000 -0.0011 -0.0013
vn -1.0000 -0.0006 -0.0016
usemtl None
s 1
f 21/21/21 22/22/22 23/23/23
f 24/24/24 21/21/21 23/23/23
