# Blender v2.92.0 OBJ File: 'stage.blend'
# www.blender.org
mtllib stage.mtl
o 平面
v -121.318077 -0.255010 -81.243744
v 121.201744 -0.255010 81.038933
v -121.504120 -0.255010 81.038933
v 121.201744 0.023313 -80.492661
v -0.151186 -0.255010 81.038933
v -0.058166 -0.115848 -80.868202
v -121.411095 -0.255010 -0.102406
v 121.201744 -0.115848 0.273141
v -0.151186 -0.115848 0.273141
v 60.525280 -0.255010 81.038933
v -60.688122 -0.185429 -81.055977
v -121.457603 -0.255010 40.468262
v 121.201744 -0.046268 -40.109756
v 60.525280 -0.046268 -40.109756
v -60.827652 -0.255010 81.038933
v 60.571789 -0.046268 -80.680428
v -121.364594 -0.255010 -40.673077
v 121.201744 -0.185429 40.656036
v -60.827652 -0.185429 40.656036
v -0.104676 -0.115848 -40.297531
v -60.734631 -0.185429 -40.485302
v -60.781143 -0.185429 0.085368
v 60.525280 -0.115848 0.273141
v -0.151186 -0.185429 40.656036
v 60.525280 -0.185429 40.656036
vt 0.500000 0.000000
vt 0.625000 0.000000
vt 0.625000 0.125000
vt 0.000000 0.000000
vt 0.125000 0.000000
vt 0.250000 0.125000
vt 0.500000 0.250000
vt 0.625000 0.250000
vt 0.750000 0.375000
vt 0.375000 0.125000
vt 0.250000 0.000000
vt 0.375000 0.000000
vt 0.500000 0.125000
vt 0.750000 0.250000
vt 0.875000 0.250000
vt 0.875000 0.375000
vt 0.750000 0.125000
vt 0.750000 0.000000
vt 0.875000 0.000000
vt 0.875000 0.125000
vt 1.000000 0.125000
vt 1.000000 0.250000
vt 1.000000 0.000000
vt 1.000000 0.375000
vt 1.000000 0.500000
vn 0.0000 1.0000 0.0017
vn -0.0011 1.0000 -0.0000
usemtl マテリアル
s off
f 3/1/1 15/2/1 19/3/1
f 1/4/2 17/5/2 11/6/2
f 6/7/2 20/8/2 16/9/2
f 6/7/2 21/10/2 20/8/2
f 7/11/2 12/12/2 22/13/2
f 9/14/1 23/15/1 14/16/1
f 9/14/1 24/17/1 23/15/1
f 5/18/1 10/19/1 25/20/1
f 25/20/1 18/21/1 8/22/1
f 25/20/1 10/19/1 18/21/1
f 10/19/1 2/23/1 18/21/1
f 23/15/1 25/20/1 8/22/1
f 23/15/1 24/17/1 25/20/1
f 24/17/1 5/18/1 25/20/1
f 14/16/1 13/24/1 4/25/1
f 14/16/1 23/15/1 13/24/1
f 23/15/1 8/22/1 13/24/1
f 22/13/2 19/3/2 9/14/2
f 22/13/2 12/12/2 19/3/2
f 12/12/2 3/1/2 19/3/2
f 20/8/2 22/13/2 9/14/2
f 20/8/2 21/10/2 22/13/2
f 21/10/2 7/11/2 22/13/2
f 16/9/2 14/16/2 4/25/2
f 16/9/2 20/8/2 14/16/2
f 20/8/2 9/14/2 14/16/2
f 11/6/2 21/10/2 6/7/2
f 11/6/2 17/5/2 21/10/2
f 17/5/2 7/11/2 21/10/2
f 19/3/1 24/17/1 9/14/1
f 19/3/1 15/2/1 24/17/1
f 15/2/1 5/18/1 24/17/1
o 平面.001
v -121.318077 -1.521049 79.618340
v 121.201744 82.066589 79.578491
v -121.504120 82.066589 79.578491
v 121.201744 -1.134315 79.339859
v -0.151186 82.066589 79.578491
v -0.058166 -1.327679 79.479103
v -121.411095 40.272770 79.598419
v 121.201744 40.466137 79.459175
v -0.151186 40.466137 79.459175
v 60.525280 82.066589 79.578491
v -60.688122 -1.424370 79.548721
v -121.457603 61.169678 79.588455
v 121.201744 19.665911 79.399521
v 60.525280 19.665911 79.399521
v -60.827652 82.066589 79.578491
v 60.571789 -1.230999 79.409477
v -121.364594 19.375860 79.608376
v 121.201744 61.266361 79.518829
v -60.827652 61.266361 79.518829
v -0.104676 19.569227 79.469139
v -60.734631 19.472544 79.538757
v -60.781143 40.369453 79.528793
v 60.525280 40.466137 79.459175
v -0.151186 61.266361 79.518829
v 60.525280 61.266361 79.518829
vt 0.500000 0.000000
vt 0.625000 0.000000
vt 0.625000 0.125000
vt 0.000000 0.000000
vt 0.125000 0.000000
vt 0.250000 0.125000
vt 0.500000 0.250000
vt 0.625000 0.250000
vt 0.750000 0.375000
vt 0.375000 0.125000
vt 0.250000 0.000000
vt 0.375000 0.000000
vt 0.500000 0.125000
vt 0.750000 0.250000
vt 0.875000 0.250000
vt 0.875000 0.375000
vt 0.750000 0.125000
vt 0.750000 0.000000
vt 0.875000 0.000000
vt 0.875000 0.125000
vt 1.000000 0.125000
vt 1.000000 0.250000
vt 1.000000 0.000000
vt 1.000000 0.375000
vt 1.000000 0.500000
vn 0.0000 0.0029 -1.0000
vn -0.0011 -0.0005 -1.0000
usemtl マテリアル.002
s off
f 28/26/3 40/27/3 44/28/3
f 26/29/4 42/30/4 36/31/4
f 31/32/4 45/33/4 41/34/4
f 31/32/4 46/35/4 45/33/4
f 32/36/4 37/37/4 47/38/4
f 34/39/3 48/40/3 39/41/3
f 34/39/3 49/42/3 48/40/3
f 30/43/3 35/44/3 50/45/3
f 50/45/3 43/46/3 33/47/3
f 50/45/3 35/44/3 43/46/3
f 35/44/3 27/48/3 43/46/3
f 48/40/3 50/45/3 33/47/3
f 48/40/3 49/42/3 50/45/3
f 49/42/3 30/43/3 50/45/3
f 39/41/3 38/49/3 29/50/3
f 39/41/3 48/40/3 38/49/3
f 48/40/3 33/47/3 38/49/3
f 47/38/4 44/28/4 34/39/4
f 47/38/4 37/37/4 44/28/4
f 37/37/4 28/26/4 44/28/4
f 45/33/4 47/38/4 34/39/4
f 45/33/4 46/35/4 47/38/4
f 46/35/4 32/36/4 47/38/4
f 41/34/4 39/41/4 29/50/4
f 41/34/4 45/33/4 39/41/4
f 45/33/4 34/39/4 39/41/4
f 36/31/4 46/35/4 31/32/4
f 36/31/4 42/30/4 46/35/4
f 42/30/4 32/36/4 46/35/4
f 44/28/3 49/42/3 34/39/3
f 44/28/3 40/27/3 49/42/3
f 40/27/3 30/43/3 49/42/3
o 平面.002
v -121.318077 82.306900 -80.426643
v 121.201744 -1.280746 -80.426643
v -121.504120 -1.280746 -80.426643
v 121.201744 81.920029 -80.148346
v -0.151186 -1.280746 -80.426643
v -0.058166 82.113464 -80.287491
v -121.411095 40.513073 -80.426643
v 121.201744 40.319641 -80.287498
v -0.151186 40.319641 -80.287498
v 60.525280 -1.280746 -80.426643
v -60.688122 82.210182 -80.357071
v -121.457603 19.616163 -80.426643
v 121.201744 61.119835 -80.217918
v 60.525280 61.119835 -80.217918
v -60.827652 -1.280746 -80.426643
v 60.571789 82.016747 -80.217918
v -121.364594 61.409985 -80.426643
v 121.201744 19.519447 -80.357071
v -60.827652 19.519447 -80.357071
v -0.104676 61.216553 -80.287491
v -60.734631 61.313271 -80.357071
v -60.781143 40.416359 -80.357071
v 60.525280 40.319641 -80.287498
v -0.151186 19.519447 -80.357071
v 60.525280 19.519447 -80.357071
vt 0.500000 0.000000
vt 0.625000 0.000000
vt 0.625000 0.125000
vt 0.000000 0.000000
vt 0.125000 0.000000
vt 0.250000 0.125000
vt 0.500000 0.250000
vt 0.625000 0.250000
vt 0.750000 0.375000
vt 0.375000 0.125000
vt 0.250000 0.000000
vt 0.375000 0.000000
vt 0.500000 0.125000
vt 0.750000 0.250000
vt 0.875000 0.250000
vt 0.875000 0.375000
vt 0.750000 0.125000
vt 0.750000 0.000000
vt 0.875000 0.000000
vt 0.875000 0.125000
vt 1.000000 0.125000
vt 1.000000 0.250000
vt 1.000000 0.000000
vt 1.000000 0.375000
vt 1.000000 0.500000
vn 0.0000 -0.0033 1.0000
vn -0.0011 0.0000 1.0000
usemtl マテリアル.002
s off
f 53/51/5 65/52/5 69/53/5
f 51/54/6 67/55/6 61/56/6
f 56/57/6 70/58/6 66/59/6
f 56/57/6 71/60/6 70/58/6
f 57/61/6 62/62/6 72/63/6
f 59/64/5 73/65/5 64/66/5
f 59/64/5 74/67/5 73/65/5
f 55/68/5 60/69/5 75/70/5
f 75/70/5 68/71/5 58/72/5
f 75/70/5 60/69/5 68/71/5
f 60/69/5 52/73/5 68/71/5
f 73/65/5 75/70/5 58/72/5
f 73/65/5 74/67/5 75/70/5
f 74/67/5 55/68/5 75/70/5
f 64/66/5 63/74/5 54/75/5
f 64/66/5 73/65/5 63/74/5
f 73/65/5 58/72/5 63/74/5
f 72/63/6 69/53/6 59/64/6
f 72/63/6 62/62/6 69/53/6
f 62/62/6 53/51/6 69/53/6
f 70/58/6 72/63/6 59/64/6
f 70/58/6 71/60/6 72/63/6
f 71/60/6 57/61/6 72/63/6
f 66/59/6 64/66/6 54/75/6
f 66/59/6 70/58/6 64/66/6
f 70/58/6 59/64/6 64/66/6
f 61/56/6 71/60/6 56/57/6
f 61/56/6 67/55/6 71/60/6
f 67/55/6 57/61/6 71/60/6
f 69/53/5 74/67/5 59/64/5
f 69/53/5 65/52/5 74/67/5
f 65/52/5 55/68/5 74/67/5
o 平面.003
v 121.201141 81.561790 -81.473038
v -121.317474 82.326225 80.809639
v 121.387177 81.561203 80.809639
v -121.318352 82.047905 -80.721954
v 0.034854 81.943718 80.809639
v -0.058604 81.804848 -81.097496
v 121.294159 81.561501 -0.331703
v -121.317909 82.187065 0.043844
v 0.034415 81.804550 0.043844
v -60.641312 82.134972 80.809639
v 60.571270 81.683319 -81.285271
v 121.340660 81.561356 40.238964
v -121.318130 82.117485 -40.339054
v -60.641968 81.926231 -40.339054
v 60.711018 81.752457 80.809639
v -60.688477 81.926376 -80.909721
v 121.247658 81.561646 -40.902374
v -121.317696 82.256645 40.426739
v 60.710800 81.682877 40.426739
v -0.012095 81.804703 -40.526829
v 60.617779 81.683174 -40.714600
v 60.664288 81.683029 -0.143930
v -60.641750 81.995811 0.043844
v 0.034634 81.874138 40.426739
v -60.641529 82.065392 40.426739
vt 0.500000 0.000000
vt 0.625000 0.000000
vt 0.625000 0.125000
vt 0.000000 0.000000
vt 0.125000 0.000000
vt 0.250000 0.125000
vt 0.500000 0.250000
vt 0.625000 0.250000
vt 0.750000 0.375000
vt 0.375000 0.125000
vt 0.250000 0.000000
vt 0.375000 0.000000
vt 0.500000 0.125000
vt 0.750000 0.250000
vt 0.875000 0.250000
vt 0.875000 0.375000
vt 0.750000 0.125000
vt 0.750000 0.000000
vt 0.875000 0.000000
vt 0.875000 0.125000
vt 1.000000 0.125000
vt 1.000000 0.250000
vt 1.000000 0.000000
vt 1.000000 0.375000
vt 1.000000 0.500000
vn -0.0032 -1.0000 0.0017
vn -0.0020 -1.0000 -0.0000
usemtl マテリアル.001
s off
f 78/76/7 90/77/7 94/78/7
f 76/79/8 92/80/8 86/81/8
f 81/82/8 95/83/8 91/84/8
f 81/82/8 96/85/8 95/83/8
f 82/86/8 87/87/8 97/88/8
f 84/89/7 98/90/7 89/91/7
f 84/89/7 99/92/7 98/90/7
f 80/93/7 85/94/7 100/95/7
f 100/95/7 93/96/7 83/97/7
f 100/95/7 85/94/7 93/96/7
f 85/94/7 77/98/7 93/96/7
f 98/90/7 100/95/7 83/97/7
f 98/90/7 99/92/7 100/95/7
f 99/92/7 80/93/7 100/95/7
f 89/91/7 88/99/7 79/100/7
f 89/91/7 98/90/7 88/99/7
f 98/90/7 83/97/7 88/99/7
f 97/88/8 94/78/8 84/89/8
f 97/88/8 87/87/8 94/78/8
f 87/87/8 78/76/8 94/78/8
f 95/83/8 97/88/8 84/89/8
f 95/83/8 96/85/8 97/88/8
f 96/85/8 82/86/8 97/88/8
f 91/84/8 89/91/8 79/100/8
f 91/84/8 95/83/8 89/91/8
f 95/83/8 84/89/8 89/91/8
f 86/81/8 96/85/8 81/82/8
f 86/81/8 92/80/8 96/85/8
f 92/80/8 82/86/8 96/85/8
f 94/78/7 99/92/7 84/89/7
f 94/78/7 90/77/7 99/92/7
f 90/77/7 80/93/7 99/92/7
o 平面.005
v -119.237152 82.306885 84.652397
v -119.293854 -1.280735 -85.245903
v -119.284889 -1.280735 84.782730
v -118.968048 81.919861 -85.245918
v -119.289368 -1.280735 -0.231583
v -119.102600 82.113373 -0.296759
v -119.261017 40.513073 84.717560
v -119.130951 40.319561 -85.245911
v -119.126465 40.319561 -0.231592
v -119.291611 -1.280735 -42.738743
v -119.169876 82.210129 42.177822
v -119.272957 19.616169 84.750137
v -119.049500 61.119709 -85.245911
v -119.047256 61.119709 -42.738754
v -119.287132 -1.280735 42.275574
v -119.035324 82.016617 -42.771336
v -119.249084 61.409981 84.684982
v -119.212402 19.519413 -85.245903
v -119.205681 19.519413 42.275570
v -119.114532 61.216465 -0.264175
v -119.181808 61.313225 42.210403
v -119.193741 40.416317 42.242989
v -119.128708 40.319561 -42.738750
v -119.207916 19.519413 -0.231588
v -119.210159 19.519413 -42.738747
vt 0.500000 0.000000
vt 0.625000 0.000000
vt 0.625000 0.125000
vt 0.000000 0.000000
vt 0.125000 0.000000
vt 0.250000 0.125000
vt 0.500000 0.250000
vt 0.625000 0.250000
vt 0.750000 0.375000
vt 0.375000 0.125000
vt 0.250000 0.000000
vt 0.375000 0.000000
vt 0.500000 0.125000
vt 0.750000 0.250000
vt 0.875000 0.250000
vt 0.875000 0.375000
vt 0.750000 0.125000
vt 0.750000 0.000000
vt 0.875000 0.000000
vt 0.875000 0.125000
vt 1.000000 0.125000
vt 1.000000 0.250000
vt 1.000000 0.000000
vt 1.000000 0.375000
vt 1.000000 0.500000
vn 1.0000 -0.0039 -0.0001
vn 1.0000 -0.0006 0.0016
usemtl マテリアル.002
s off
f 103/101/9 115/102/9 119/103/9
f 101/104/10 117/105/10 111/106/10
f 106/107/10 120/108/10 116/109/10
f 106/107/10 121/110/10 120/108/10
f 107/111/10 112/112/10 122/113/10
f 109/114/9 123/115/9 114/116/9
f 109/114/9 124/117/9 123/115/9
f 105/118/9 110/119/9 125/120/9
f 125/120/9 118/121/9 108/122/9
f 125/120/9 110/119/9 118/121/9
f 110/119/9 102/123/9 118/121/9
f 123/115/9 125/120/9 108/122/9
f 123/115/9 124/117/9 125/120/9
f 124/117/9 105/118/9 125/120/9
f 114/116/9 113/124/9 104/125/9
f 114/116/9 123/115/9 113/124/9
f 123/115/9 108/122/9 113/124/9
f 122/113/10 119/103/10 109/114/10
f 122/113/10 112/112/10 119/103/10
f 112/112/10 103/101/10 119/103/10
f 120/108/10 122/113/10 109/114/10
f 120/108/10 121/110/10 122/113/10
f 121/110/10 107/111/10 122/113/10
f 116/109/10 114/116/10 104/125/10
f 116/109/10 120/108/10 114/116/10
f 120/108/10 109/114/10 114/116/10
f 111/106/10 121/110/10 106/107/10
f 111/106/10 117/105/10 121/110/10
f 117/105/10 107/111/10 121/110/10
f 119/103/9 124/117/9 109/114/9
f 119/103/9 115/102/9 124/117/9
f 115/102/9 105/118/9 124/117/9
o 平面.004_平面.006
v 121.421944 82.306885 -85.245903
v 121.469688 -1.280735 84.652397
v 121.469688 -1.280735 -85.376236
v 121.143875 81.919861 84.652397
v 121.469688 -1.280735 -0.361916
v 121.282913 82.113373 -0.296750
v 121.445816 40.513073 -85.311066
v 121.306786 40.319561 84.652397
v 121.306786 40.319561 -0.361916
v 121.469688 -1.280735 42.145245
v 121.352425 82.210129 -42.771324
v 121.457748 19.616169 -85.343643
v 121.225334 61.119709 84.652397
v 121.225334 61.119709 42.145245
v 121.469688 -1.280735 -42.869072
v 121.213394 82.016617 42.177826
v 121.433876 61.409981 -85.278488
v 121.388237 19.519413 84.652397
v 121.388237 19.519413 -42.869072
v 121.294846 61.216465 -0.329333
v 121.364365 61.313225 -42.803905
v 121.376297 40.416317 -42.836491
v 121.306786 40.319561 42.145245
v 121.388237 19.519413 -0.361916
v 121.388237 19.519413 42.145245
vt 0.500000 0.000000
vt 0.625000 0.000000
vt 0.625000 0.125000
vt 0.000000 0.000000
vt 0.125000 0.000000
vt 0.250000 0.125000
vt 0.500000 0.250000
vt 0.625000 0.250000
vt 0.750000 0.375000
vt 0.375000 0.125000
vt 0.250000 0.000000
vt 0.375000 0.000000
vt 0.500000 0.125000
vt 0.750000 0.250000
vt 0.875000 0.250000
vt 0.875000 0.375000
vt 0.750000 0.125000
vt 0.750000 0.000000
vt 0.875000 0.000000
vt 0.875000 0.125000
vt 1.000000 0.125000
vt 1.000000 0.250000
vt 1.000000 0.000000
vt 1.000000 0.375000
vt 1.000000 0.500000
vn -1.0000 -0.0039 0.0000
vn -1.0000 -0.0006 -0.0016
usemtl マテリアル.002
s off
f 128/126/11 140/127/11 144/128/11
f 126/129/12 142/130/12 136/131/12
f 131/132/12 145/133/12 141/134/12
f 131/132/12 146/135/12 145/133/12
f 132/136/12 137/137/12 147/138/12
f 134/139/11 148/140/11 139/141/11
f 134/139/11 149/142/11 148/140/11
f 130/143/11 135/144/11 150/145/11
f 150/145/11 143/146/11 133/147/11
f 150/145/11 135/144/11 143/146/11
f 135/144/11 127/148/11 143/146/11
f 148/140/11 150/145/11 133/147/11
f 148/140/11 149/142/11 150/145/11
f 149/142/11 130/143/11 150/145/11
f 139/141/11 138/149/11 129/150/11
f 139/141/11 148/140/11 138/149/11
f 148/140/11 133/147/11 138/149/11
f 147/138/12 144/128/12 134/139/12
f 147/138/12 137/137/12 144/128/12
f 137/137/12 128/126/12 144/128/12
f 145/133/12 147/138/12 134/139/12
f 145/133/12 146/135/12 147/138/12
f 146/135/12 132/136/12 147/138/12
f 141/134/12 139/141/12 129/150/12
f 141/134/12 145/133/12 139/141/12
f 145/133/12 134/139/12 139/141/12
f 136/131/12 146/135/12 131/132/12
f 136/131/12 142/130/12 146/135/12
f 142/130/12 132/136/12 146/135/12
f 144/128/11 149/142/11 134/139/11
f 144/128/11 140/127/11 149/142/11
f 140/127/11 130/143/11 149/142/11
